<svg width="20" height="20" viewBox="0 0 20 20" fill="none" xmlns="http://www.w3.org/2000/svg">
<path fill-rule="evenodd" clip-rule="evenodd" d="M4.63912 2.5C2.99749 2.5 1.66669 3.8308 1.66669 5.47243V14.1667C1.66669 16.0076 3.15907 17.5 5.00002 17.5H15C16.841 17.5 18.3334 16.0076 18.3334 14.1667V8.5C18.3334 6.65955 16.8426 5.16667 15.0012 5.16667H10.333C10.3188 5.1603 10.3015 5.15222 10.282 5.1423C10.2417 5.12178 10.2025 5.09927 10.1714 5.07964C10.1572 5.07067 10.1471 5.06377 10.141 5.05943C10.0249 4.95563 9.85542 4.7775 9.62059 4.52691L9.57479 4.47802C9.35708 4.24558 9.10294 3.97424 8.8415 3.71696C8.56419 3.44405 8.25361 3.16171 7.94042 2.94299C7.6578 2.7456 7.23631 2.5 6.76199 2.5H4.63912ZM8.40443 5.66654C8.62522 5.90215 8.85869 6.15095 9.04825 6.31802C9.18297 6.43675 9.37495 6.5507 9.52547 6.62738C9.60924 6.67005 9.70665 6.71477 9.80731 6.75086C9.88797 6.77978 10.0505 6.83333 10.2373 6.83333H15.0012C15.9211 6.83333 16.6667 7.57903 16.6667 8.5V14.1667C16.6667 15.0871 15.9205 15.8333 15 15.8333H5.00002C4.07955 15.8333 3.33335 15.0871 3.33335 14.1667V5.47243C3.33335 4.75128 3.91797 4.16667 4.63912 4.16667H6.73676C6.7375 4.16723 6.74002 4.16825 6.74438 4.17003C6.76796 4.17961 6.8453 4.21105 6.98612 4.3094C7.18578 4.44884 7.41885 4.65529 7.67247 4.90487C7.90871 5.13736 8.14109 5.38542 8.36313 5.62245L8.40443 5.66654Z" fill="black"/>
</svg>
