<svg width="20" height="20" viewBox="0 0 20 20" fill="none" xmlns="http://www.w3.org/2000/svg">
<path fill-rule="evenodd" clip-rule="evenodd" d="M11.9121 1.98751C10.7643 1.1841 9.23672 1.18409 8.08899 1.98751L2.35767 5.99943C1.39216 6.67529 0.855306 7.81077 0.945697 8.98586L1.53321 16.6236C1.64402 18.064 2.94919 19.111 4.3794 18.9067L7.02075 18.5294C8.25237 18.3534 9.16719 17.2986 9.16719 16.0545V15C9.16719 14.5397 9.54029 14.1666 10.0005 14.1666C10.4608 14.1666 10.8339 14.5397 10.8339 15V16.0545C10.8339 17.2986 11.7487 18.3534 12.9803 18.5294L15.6217 18.9067C17.0519 19.111 18.357 18.064 18.4678 16.6236L19.0554 8.98586C19.1458 7.81077 18.6089 6.67529 17.6434 5.99943L11.9121 1.98751ZM9.04476 3.35289C9.61862 2.95119 10.3824 2.95119 10.9563 3.3529L16.6876 7.36482C17.1704 7.70275 17.4388 8.27048 17.3936 8.85803L16.8061 16.4957C16.7691 16.9759 16.3341 17.3249 15.8574 17.2568L13.216 16.8794C12.8055 16.8208 12.5005 16.4692 12.5005 16.0545V15C12.5005 13.6193 11.3812 12.5 10.0005 12.5C8.61982 12.5 7.50053 13.6193 7.50053 15V16.0545C7.50053 16.4692 7.19559 16.8208 6.78505 16.8794L4.1437 17.2568C3.66696 17.3249 3.23191 16.9759 3.19497 16.4957L2.60745 8.85803C2.56226 8.27048 2.83069 7.70275 3.31344 7.36481L9.04476 3.35289Z" fill="black"/>
</svg>
