<svg width="559" height="174" viewBox="0 0 559 174" fill="none" xmlns="http://www.w3.org/2000/svg">
<g clip-path="url(#clip0_4_477)">
<path d="M334.993 65.9197V0.092041H367.715C367.715 0.092041 368.089 81.2573 367.432 121.37C366.487 150.799 340.371 172.82 310.762 173.942C278.795 175.163 258.228 157.358 251.261 139.351C241.733 114.791 244.563 91.7393 261.82 71.3107C276.339 53.8911 310.381 45.1715 334.993 65.9197ZM334.047 113.805C334.047 97.7829 322.923 86.4396 307.367 86.3482C291.521 86.2569 279.642 97.9722 279.55 113.714C279.459 129.457 291.239 141.453 306.894 141.642C322.733 141.707 334.146 129.992 334.047 113.773V113.805Z" fill="#843DF5"/>
<path d="M472.581 66.0691V0H505.704V5.80872C505.704 42.6451 505.796 79.3766 505.704 116.213C505.612 148.194 480.435 172.728 448.186 173.85C413.671 175.071 391.232 153.422 385.48 128.679C378.027 96.8092 394.528 64.8552 423.764 56.2335C441.087 51.1688 457.681 52.7613 472.581 66.0691ZM417.71 113.681C417.611 129.71 429.116 141.419 444.955 141.608C460.61 141.798 472.397 129.802 472.306 113.87C472.214 97.9388 460.892 86.4062 445.428 86.4062C429.484 86.2235 417.794 97.7496 417.71 113.681Z" fill="#843DF5"/>
<path d="M105.01 141.518C105.01 148.827 104.918 162.697 104.918 171.038H93.4136C72.669 171.038 51.9247 171.129 31.1804 171.038C16.2805 170.946 5.90508 164.009 2.22772 152.012C-1.82395 138.516 2.03727 126.618 14.7702 118.727C26.7478 111.326 39.6647 105.327 52.1086 98.6703C55.3197 96.9869 58.7147 95.766 61.6369 93.7106C62.0256 93.4119 62.3743 93.0653 62.6744 92.6789C63.0919 92.1011 63.3453 91.4218 63.4086 90.7127C63.4717 90.0037 63.3422 89.291 63.0336 88.6486C62.7249 88.007 62.2485 87.4589 61.654 87.0623C61.0594 86.665 60.3686 86.4345 59.6537 86.3939H59.5618C43.5324 86.2112 27.3848 86.3025 11.2832 86.3025H4.11236V56.7043H71.441C74.826 56.7324 78.2023 57.0447 81.5344 57.6376C91.6206 59.3215 99.3499 64.3862 102.653 74.4111C106.238 85.0954 104.445 95.4984 95.7705 102.717C87.4707 109.655 77.85 115.183 68.5188 120.711C60.6913 125.279 52.3975 128.961 44.4715 133.457C44.1674 133.646 43.8836 133.864 43.6243 134.11C42.9821 134.675 42.5262 135.418 42.316 136.245C42.1058 137.071 42.1512 137.941 42.4463 138.74C42.7413 139.541 43.2723 140.234 43.9698 140.729C44.6673 141.225 45.499 141.5 46.3561 141.518L50.2961 141.609C62.7663 141.798 92.7502 141.42 105.01 141.518Z" fill="#843DF5"/>
<path d="M196.672 57.0719H229.768C229.677 58.3771 230.523 107.777 228.54 131.952C226.655 155.193 206.102 172.163 182.146 173.566C163.293 174.688 145.846 171.314 132.646 156.224C126.079 148.634 121.706 139.731 121.424 129.987C120.767 105.839 121.233 81.6248 121.233 56.9805H153.765V63.5397C153.857 82.4673 153.575 101.394 153.955 120.322C154.237 135.985 167.437 145.123 182.527 140.469C190.821 137.937 196.107 131.75 196.317 122.848C196.672 103.372 196.856 76.6586 196.672 57.0719Z" fill="#843DF5"/>
<path d="M553.759 171.037H521.7V0H553.759V171.037Z" fill="#843DF5"/>
</g>
<defs>
<clipPath id="clip0_4_477">
<rect width="558.25" height="174" fill="white" transform="translate(0.6875)"/>
</clipPath>
</defs>
</svg>
