<svg fill="none" xmlns="http://www.w3.org/2000/svg"><path d="M12.0666 16.6215H5.03021C4.72538 16.6215 4.59837 16.4437 4.59837 16.2151C4.59837 16.0118 4.75078 15.8594 4.9794 15.7324L8.96757 13.6494C11.1268 12.5317 11.9904 11.2362 11.9904 9.96609C11.9904 8.41655 11.1522 6.7908 8.2817 6.7908H0.508599V10.1693H7.1386C7.44343 10.1693 7.57044 10.3471 7.57044 10.5757C7.57044 10.779 7.41803 10.9568 7.1894 11.0584L2.7694 13.3192C0.813427 14.3099 0.178369 15.453 0.178369 16.6469C0.178369 18.2472 1.01665 20 3.88711 20H12.0666V16.6215ZM25.7807 14.0559V6.7908H21.9704V14.0559C21.9704 15.6816 20.9289 16.5453 19.5317 16.5453C18.1346 16.5453 17.0931 15.6816 17.0931 14.0559V6.7908H13.2828V14.0559C13.2828 17.9932 15.9246 20.254 19.5317 20.254C23.1389 20.254 25.7807 17.9932 25.7807 14.0559ZM33.4091 6.53678C29.8274 6.53678 27.0078 9.43264 27.0078 13.3954C27.0078 17.3582 29.9798 20.254 33.9934 20.254C38.007 20.254 40.979 17.3582 40.979 13.4208V0.186205H37.1687V8.06092C36.3304 7.01942 34.9841 6.53678 33.4091 6.53678ZM37.1179 13.3954C37.1179 15.199 35.8224 16.5453 34.0188 16.5453C32.2152 16.5453 30.8689 15.199 30.8689 13.3954C30.8689 11.5918 32.2152 10.2455 34.0188 10.2455C35.8224 10.2455 37.1179 11.5918 37.1179 13.3954ZM48.4868 6.53678C44.9051 6.53678 42.0854 9.43264 42.0854 13.3954C42.0854 17.3582 45.0575 20.254 49.071 20.254C53.0846 20.254 56.0567 17.3582 56.0567 13.4208V0.186205H52.2463V8.06092C51.4081 7.01942 50.0617 6.53678 48.4868 6.53678ZM52.1955 13.3954C52.1955 15.199 50.9 16.5453 49.0965 16.5453C47.2929 16.5453 45.9466 15.199 45.9466 13.3954C45.9466 11.5918 47.2929 10.2455 49.0965 10.2455C50.9 10.2455 52.1955 11.5918 52.1955 13.3954ZM58.1284 0.186205V20H61.9387V0.186205H58.1284Z" fill="rgb(var(--contrast-1))" data-darkreader-inline-fill="" style="--darkreader-inline-fill: #3e1a75;"></path></svg>