<svg width="20" height="20" viewBox="0 0 20 20" fill="none" xmlns="http://www.w3.org/2000/svg">
<path d="M10.1168 8.45409C10.352 8.27768 10.4084 7.94825 10.2453 7.70362C10.0514 7.41274 9.63987 7.37199 9.39268 7.61919L8.92261 8.08925C8.59717 8.41469 8.06954 8.41469 7.7441 8.08925C7.41866 7.76382 7.41866 7.23618 7.7441 6.91074L8.21416 6.44068C9.20505 5.44979 10.8548 5.61314 11.6321 6.77912C12.2858 7.75975 12.0596 9.08028 11.1168 9.78743L11.0763 9.81777C10.9234 9.93248 10.8334 10.1125 10.8334 10.3037L10.8334 10.4167C10.8334 10.8769 10.4603 11.25 10 11.25C9.53978 11.25 9.16669 10.8769 9.16669 10.4167L9.16669 10.3037C9.16669 9.58792 9.5037 8.91391 10.0763 8.48443L10.1168 8.45409Z" fill="black"/>
<path d="M9.16669 12.9167C9.16669 13.3769 9.53978 13.75 10 13.75C10.4603 13.75 10.8334 13.3769 10.8334 12.9167C10.8334 12.4564 10.4603 12.0833 10 12.0833C9.53978 12.0833 9.16669 12.4564 9.16669 12.9167Z" fill="black"/>
<path fill-rule="evenodd" clip-rule="evenodd" d="M1.66669 10C1.66669 5.39762 5.39765 1.66666 10 1.66666C14.6024 1.66666 18.3334 5.39762 18.3334 10C18.3334 14.6024 14.6024 18.3333 10 18.3333C5.39765 18.3333 1.66669 14.6024 1.66669 10ZM10 3.33333C6.31812 3.33333 3.33335 6.3181 3.33335 10C3.33335 13.6819 6.31812 16.6667 10 16.6667C13.6819 16.6667 16.6667 13.6819 16.6667 10C16.6667 6.3181 13.6819 3.33333 10 3.33333Z" fill="black"/>
</svg>
