<svg width="20" height="20" viewBox="0 0 20 20" fill="none" xmlns="http://www.w3.org/2000/svg">
<path fill-rule="evenodd" clip-rule="evenodd" d="M9.99948 5.00002C7.23806 5.00002 4.99948 7.2386 4.99948 10C4.99948 12.7614 7.23806 15 9.99948 15C12.7609 15 14.9995 12.7614 14.9995 10C14.9995 7.2386 12.7609 5.00002 9.99948 5.00002ZM6.66615 10C6.66615 8.15907 8.15854 6.66669 9.99948 6.66669C11.8404 6.66669 13.3328 8.15907 13.3328 10C13.3328 11.841 11.8404 13.3334 9.99948 13.3334C8.15854 13.3334 6.66615 11.841 6.66615 10Z" fill="black"/>
<path fill-rule="evenodd" clip-rule="evenodd" d="M12.0843 1.69077C10.9219 0.566231 9.07708 0.566231 7.91464 1.69077C7.61939 1.9764 7.20885 2.10979 6.8021 2.05226C5.20069 1.82575 3.7082 2.9101 3.42876 4.50314C3.35778 4.90776 3.10405 5.25698 2.74117 5.44952C1.31246 6.20756 0.742379 7.96208 1.45267 9.41512C1.63308 9.78419 1.63308 10.2159 1.45267 10.5849C0.742378 12.038 1.31246 13.7925 2.74117 14.5505C3.10405 14.7431 3.35778 15.0923 3.42876 15.4969C3.7082 17.0899 5.20069 18.1743 6.8021 17.9478C7.20885 17.8903 7.61939 18.0236 7.91464 18.3093C9.07708 19.4338 10.9219 19.4338 12.0843 18.3093C12.3796 18.0236 12.7901 17.8903 13.1969 17.9478C14.7983 18.1743 16.2908 17.0899 16.5702 15.4969C16.6412 15.0923 16.8949 14.7431 17.2578 14.5505C18.6865 13.7925 19.2566 12.038 18.5463 10.5849C18.3659 10.2159 18.3659 9.78419 18.5463 9.41512C19.2566 7.96208 18.6865 6.20756 17.2578 5.44952C16.8949 5.25698 16.6412 4.90776 16.5702 4.50314C16.2908 2.9101 14.7983 1.82575 13.1969 2.05226C12.7901 2.10979 12.3796 1.9764 12.0843 1.69077ZM9.07347 2.88864C9.58978 2.38916 10.4092 2.38916 10.9255 2.88864C11.5902 3.53171 12.5145 3.83203 13.4303 3.7025C14.1416 3.60189 14.8045 4.08352 14.9286 4.7911C15.0884 5.70206 15.6596 6.48831 16.4766 6.92179C17.1112 7.25848 17.3644 8.03779 17.049 8.68318C16.6428 9.51409 16.6428 10.4859 17.049 11.3169C17.3644 11.9623 17.1112 12.7416 16.4766 13.0782C15.6596 13.5117 15.0884 14.298 14.9286 15.2089C14.8045 15.9165 14.1416 16.3982 13.4303 16.2975C12.5145 16.168 11.5902 16.4683 10.9255 17.1114C10.4092 17.6109 9.58978 17.6109 9.07347 17.1114C8.40874 16.4683 7.48445 16.168 6.56869 16.2975C5.85739 16.3982 5.19448 15.9165 5.07036 15.2089C4.91056 14.298 4.33932 13.5117 3.52232 13.0782C2.88773 12.7416 2.63452 11.9623 2.95001 11.3169C3.35618 10.4859 3.35618 9.51409 2.95001 8.68318C2.63452 8.03779 2.88773 7.25848 3.52232 6.92179C4.33932 6.48831 4.91056 5.70206 5.07036 4.7911C5.19448 4.08352 5.85739 3.60189 6.56869 3.7025C7.48445 3.83203 8.40874 3.53171 9.07347 2.88864Z" fill="black"/>
</svg>
