<svg width="20" height="20" viewBox="0 0 20 20" fill="none" xmlns="http://www.w3.org/2000/svg">
<path fill-rule="evenodd" clip-rule="evenodd" d="M14.1666 1.66666C12.3257 1.66666 10.8333 3.15904 10.8333 4.99999C10.8333 5.14234 10.8422 5.28261 10.8596 5.42026C10.7391 5.51703 10.582 5.63955 10.399 5.77417C9.95239 6.1026 9.37818 6.48285 8.81555 6.74423C8.3322 6.96878 7.75168 7.16365 7.27621 7.30507C7.04177 7.37479 6.83944 7.4296 6.69641 7.46681C6.625 7.48538 6.56865 7.4995 6.53079 7.50882L6.48838 7.51914L6.47844 7.52151L6.47644 7.52199C6.45557 7.52688 6.43493 7.53256 6.41483 7.53891C5.82209 6.99714 5.03296 6.66666 4.16665 6.66666C2.3257 6.66666 0.833313 8.15904 0.833313 9.99999C0.833313 11.8409 2.3257 13.3333 4.16665 13.3333C5.03294 13.3333 5.82206 13.0029 6.4148 12.4611C6.44499 12.4706 6.47605 12.4785 6.50788 12.4847L6.50879 12.4849L6.51709 12.4866L6.55521 12.4945C6.58983 12.5018 6.6422 12.5132 6.70929 12.5287C6.84369 12.5598 7.03585 12.6072 7.26172 12.6714C7.71939 12.8014 8.28946 12.9931 8.79397 13.2453C9.30413 13.5004 9.88687 13.8867 10.3587 14.2245C10.5541 14.3644 10.7254 14.4922 10.8579 14.5931C10.8417 14.7265 10.8333 14.8623 10.8333 15C10.8333 16.8409 12.3257 18.3333 14.1666 18.3333C16.0076 18.3333 17.5 16.8409 17.5 15C17.5 13.159 16.0076 11.6667 14.1666 11.6667C13.0782 11.6667 12.1116 12.1884 11.5032 12.9954C11.4475 12.9547 11.3892 12.9125 11.3288 12.8693C10.8354 12.5161 10.1682 12.0691 9.53932 11.7546C8.90481 11.4374 8.22487 11.2124 7.7173 11.0682C7.58606 11.0309 7.46462 10.9985 7.35636 10.9709C7.44975 10.6637 7.49998 10.3377 7.49998 9.99999C7.49998 9.65768 7.44838 9.32741 7.35253 9.01656C7.47059 8.98417 7.60527 8.94602 7.75133 8.90257C8.25728 8.7521 8.92676 8.5303 9.51775 8.25575C10.2246 7.92738 10.9004 7.4743 11.3864 7.11683C11.4308 7.08415 11.4739 7.05211 11.5155 7.02084C12.1246 7.8186 13.0855 8.33332 14.1666 8.33332C16.0076 8.33332 17.5 6.84094 17.5 4.99999C17.5 3.15904 16.0076 1.66666 14.1666 1.66666ZM12.5 4.99999C12.5 4.07952 13.2462 3.33332 14.1666 3.33332C15.0871 3.33332 15.8333 4.07952 15.8333 4.99999C15.8333 5.92046 15.0871 6.66666 14.1666 6.66666C13.2462 6.66666 12.5 5.92046 12.5 4.99999ZM2.49998 9.99999C2.49998 9.07952 3.24617 8.33332 4.16665 8.33332C5.08712 8.33332 5.83331 9.07952 5.83331 9.99999C5.83331 10.9205 5.08712 11.6667 4.16665 11.6667C3.24617 11.6667 2.49998 10.9205 2.49998 9.99999ZM12.5 15C12.5 14.0795 13.2462 13.3333 14.1666 13.3333C15.0871 13.3333 15.8333 14.0795 15.8333 15C15.8333 15.9205 15.0871 16.6667 14.1666 16.6667C13.2462 16.6667 12.5 15.9205 12.5 15Z" fill="black"/>
</svg>
